<svg width="468" height="75" viewBox="0 0 468 75" fill="none" xmlns="http://www.w3.org/2000/svg">
<g filter="url(#filter0_di)">
<path d="M15.8421 31.156L15.1581 31.84L13.1421 29.824V21.796L15.1581 19.78L15.8421 20.428V31.156ZM15.8421 18.412L15.1581 19.096L13.1421 17.08V10.564H15.8421V18.412ZM21.0261 7.036L21.7101 7.684L19.6941 9.7H9.32606L7.31006 7.684L7.95806 7.036H21.0261Z" fill="#FF003D"/>
<path d="M26.2306 18.448L25.5466 19.096L23.5306 17.08V9.052L25.5466 7.036L26.2306 7.72V18.448ZM26.2306 31.192L25.5466 31.84L23.5306 29.824V21.796L25.5466 19.78L26.2306 20.464V31.192Z" fill="#FF003D"/>
<path d="M44.1777 31.84L41.4777 29.14V21.76L43.4937 19.744L44.1777 20.428V31.84ZM44.1777 7.684V18.412L43.4937 19.096L41.4777 17.08V10.384L44.1777 7.684ZM37.7337 18.412L36.3657 19.744L35.0337 18.412V10.636H37.7337V18.412ZM43.4937 7L40.8297 9.7H32.1177L29.4177 7H43.4937ZM31.4337 10.384V17.08L29.4177 19.096L28.7337 18.412V7.684L31.4337 10.384ZM31.4337 29.14L28.7337 31.84V20.428L29.4177 19.744L31.4337 21.76V29.14Z" fill="#FF003D"/>
<path d="M59.5514 7L56.8514 9.7H50.1554L47.4914 7H59.5514ZM49.4714 10.348V17.08L47.4914 19.096L46.8074 18.412V7.684L49.4714 10.348ZM57.2114 18.088L58.5434 19.42L57.2114 20.752H49.7954L48.4634 19.42L49.7954 18.088H57.2114ZM49.4714 21.76V28.456L46.8074 31.156V20.428L47.4914 19.744L49.4714 21.76ZM59.5514 31.84H47.4914L50.1554 29.14H56.8514L59.5514 31.84Z" fill="#FF003D"/>
<path d="M77.0314 18.448L76.3474 19.096L74.3314 17.08V9.052L76.3474 7.036L77.0314 7.72V18.448ZM77.0314 31.192L76.3474 31.84L74.3314 29.824V21.796L76.3474 19.78L77.0314 20.464V31.192Z" fill="#FF003D"/>
<path d="M93.1065 7.036L90.4065 9.7H83.0265L81.0105 7.684L81.6945 7.036H93.1065ZM82.3425 17.08L80.3625 19.096L79.6785 18.412V9.016L80.3625 8.368L82.3425 10.384V17.08ZM91.4145 19.42L90.0825 20.788H82.6665L81.3345 19.42L82.6665 18.088H90.0825L91.4145 19.42ZM93.1065 29.824L92.4225 30.508L90.4065 28.492V21.796L92.4225 19.78L93.1065 20.428V29.824ZM91.7385 31.156L91.0905 31.84H79.6785L82.3425 29.176L83.0625 29.14H89.7225L91.7385 31.156Z" fill="#FF003D"/>
<path d="M116.424 31.156L115.74 31.84L113.724 29.824V21.796L115.74 19.78L116.424 20.428V31.156ZM116.424 18.412L115.74 19.096L113.724 17.08V10.564H116.424V18.412ZM121.608 7.036L122.292 7.684L120.276 9.7H109.908L107.892 7.684L108.54 7.036H121.608Z" fill="#FF003D"/>
<path d="M137.685 31.84L135.021 29.14V21.76L137.037 19.744L137.685 20.428V31.84ZM137.685 7V18.412L137.037 19.096L135.021 17.08V9.7L137.685 7ZM126.957 9.7V17.08L124.941 19.096L124.293 18.412V7L126.957 9.7ZM136.029 19.42L134.697 20.752H127.281L125.949 19.42L127.281 18.088H134.697L136.029 19.42ZM126.957 29.14L124.293 31.84V20.428L124.941 19.744L126.957 21.76V29.14Z" fill="#FF003D"/>
<path d="M153.102 7L150.402 9.7H143.706L141.042 7H153.102ZM143.022 10.348V17.08L141.042 19.096L140.358 18.412V7.684L143.022 10.348ZM150.762 18.088L152.094 19.42L150.762 20.752H143.346L142.014 19.42L143.346 18.088H150.762ZM143.022 21.76V28.456L140.358 31.156V20.428L141.042 19.744L143.022 21.76ZM153.102 31.84H141.042L143.706 29.14H150.402L153.102 31.84Z" fill="#FF003D"/>
<path d="M183.326 31.84L180.626 29.14V21.76L182.642 19.744L183.326 20.428V31.84ZM183.326 7.684V18.412L182.642 19.096L180.626 17.08V10.384L183.326 7.684ZM176.882 18.412L175.514 19.744L174.182 18.412V10.636H176.882V18.412ZM182.642 7L179.978 9.7H171.266L168.566 7H182.642ZM170.582 10.384V17.08L168.566 19.096L167.882 18.412V7.684L170.582 10.384ZM170.582 29.14L167.882 31.84V20.428L168.566 19.744L170.582 21.76V29.14Z" fill="#FF003D"/>
<path d="M199.384 29.824L198.7 30.472L196.684 28.492V21.76L198.7 19.744L199.384 20.428V29.824ZM199.384 18.412L198.7 19.096L196.684 17.08V10.348L198.7 8.368L199.384 9.016V18.412ZM198.016 7.684L196.036 9.7H189.304L187.288 7.684L187.972 7H197.368L198.016 7.684ZM188.656 17.08L186.64 19.096L185.956 18.412V9.016L186.64 8.368L188.656 10.348V17.08ZM188.656 28.492L186.64 30.472L185.956 29.824V20.428L186.64 19.744L188.656 21.76V28.492ZM198.016 31.156L197.368 31.84H187.972L187.288 31.156L189.304 29.14H196.036L198.016 31.156Z" fill="#FF003D"/>
<path d="M215.485 7.036L212.785 9.7H205.405L203.389 7.684L204.073 7.036H215.485ZM204.721 17.08L202.741 19.096L202.057 18.412V9.016L202.741 8.368L204.721 10.384V17.08ZM213.793 19.42L212.461 20.788H205.045L203.713 19.42L205.045 18.088H212.461L213.793 19.42ZM215.485 29.824L214.801 30.508L212.785 28.492V21.796L214.801 19.78L215.485 20.428V29.824ZM214.117 31.156L213.469 31.84H202.057L204.721 29.176L205.441 29.14H212.101L214.117 31.156Z" fill="#FF003D"/>
<path d="M225.971 31.156L225.287 31.84L223.271 29.824V21.796L225.287 19.78L225.971 20.428V31.156ZM225.971 18.412L225.287 19.096L223.271 17.08V10.564H225.971V18.412ZM231.155 7.036L231.839 7.684L229.823 9.7H219.455L217.439 7.684L218.087 7.036H231.155Z" fill="#FF003D"/>
<path d="M259.488 19.636L259.812 20.536C258.9 22.408 258 24.292 257.112 26.188C256.248 28.06 255.384 29.944 254.52 31.84H253.692V27.268C253.692 27.196 253.836 26.848 254.124 26.224C254.412 25.6 254.736 24.904 255.096 24.136C255.456 23.368 255.804 22.648 256.14 21.976C256.476 21.28 256.692 20.824 256.788 20.608L259.488 19.636ZM259.956 18.412L259.308 19.096L257.292 17.08V9.7L259.956 7V18.412ZM249.228 17.08L247.212 19.096L246.564 18.412V7L249.228 9.7V17.08ZM252.828 27.268V31.84H252L246.744 20.536L247.068 19.636L249.732 20.608C249.828 20.824 250.044 21.28 250.38 21.976C250.716 22.648 251.064 23.368 251.424 24.136C251.784 24.904 252.108 25.6 252.396 26.224C252.684 26.848 252.828 27.196 252.828 27.268Z" fill="#FF003D"/>
<path d="M275.812 31.84L273.148 29.176V21.796L275.164 19.78L275.812 20.464V31.84ZM275.812 7.72V18.448L275.164 19.096L273.148 17.116V10.384L275.812 7.72ZM275.164 7.036L272.464 9.736H265.768L263.068 7.036H275.164ZM265.084 10.384V17.116L263.068 19.096L262.42 18.448V7.72L265.084 10.384ZM274.156 19.456L272.824 20.788H265.408L264.076 19.456L265.408 18.088H272.824L274.156 19.456ZM265.084 29.176L262.42 31.84V20.464L263.068 19.78L265.084 21.796V29.176Z" fill="#FF003D"/>
<path d="M281.221 17.08L279.241 19.096L278.557 18.412V7L281.221 9.7V17.08ZM291.301 31.84H279.241L281.905 29.14H288.601L291.301 31.84ZM281.221 28.456L278.557 31.156V20.428L279.241 19.744L281.221 21.76V28.456Z" fill="#FF003D"/>
<path d="M305.925 31.84H293.865L296.529 29.176H303.261L305.925 31.84ZM306.609 20.428V31.156L303.909 28.492V21.796L305.925 19.78L306.609 20.428ZM306.609 18.412L305.925 19.096L303.909 17.08V9.7L306.609 7.036V18.412ZM295.881 17.08L293.865 19.096L293.181 18.412V7.036L295.881 9.7V17.08ZM295.881 21.796V28.492L293.181 31.156V20.428L293.865 19.78L295.881 21.796Z" fill="#FF003D"/>
<path d="M322.71 31.84L320.046 29.176V21.796L322.062 19.78L322.71 20.464V31.84ZM322.71 7.72V18.448L322.062 19.096L320.046 17.116V10.384L322.71 7.72ZM322.062 7.036L319.362 9.736H312.666L309.966 7.036H322.062ZM311.982 10.384V17.116L309.966 19.096L309.318 18.448V7.72L311.982 10.384ZM321.054 19.456L319.722 20.788H312.306L310.974 19.456L312.306 18.088H319.722L321.054 19.456ZM311.982 29.176L309.318 31.84V20.464L309.966 19.78L311.982 21.796V29.176Z" fill="#FF003D"/>
<path d="M337.516 31.192L336.868 31.84H326.14L328.804 29.176H335.536L337.516 31.192ZM338.884 29.86L338.2 30.508L336.184 28.492V21.796L338.2 19.78L338.884 20.464V29.86ZM338.884 18.448L338.2 19.096L336.184 17.116V10.384L338.2 8.368L338.884 9.052V18.448ZM337.516 7.72L335.536 9.736H328.804C328.348 9.28 327.892 8.836 327.436 8.404C327.004 7.972 326.572 7.516 326.14 7.036H336.868L337.516 7.72ZM328.156 17.116L326.14 19.096L325.456 18.448V7.72L328.156 10.384V17.116ZM337.228 19.456L335.86 20.788H328.48L327.112 19.456L328.48 18.088H335.86L337.228 19.456ZM328.156 28.492L325.456 31.192V20.464L326.14 19.78L328.156 21.796V28.492Z" fill="#FF003D"/>
<path d="M344.221 17.08L342.241 19.096L341.557 18.412V7L344.221 9.7V17.08ZM354.301 31.84H342.241L344.905 29.14H351.601L354.301 31.84ZM344.221 28.456L341.557 31.156V20.428L342.241 19.744L344.221 21.76V28.456Z" fill="#FF003D"/>
<path d="M368.997 7L366.297 9.7H359.601L356.937 7H368.997ZM358.917 10.348V17.08L356.937 19.096L356.253 18.412V7.684L358.917 10.348ZM366.657 18.088L367.989 19.42L366.657 20.752H359.241L357.909 19.42L359.241 18.088H366.657ZM358.917 21.76V28.456L356.253 31.156V20.428L356.937 19.744L358.917 21.76ZM368.997 31.84H356.937L359.601 29.14H366.297L368.997 31.84Z" fill="#FF003D"/>
<path d="M397.277 31.84L394.613 29.176V21.796L396.629 19.78L397.277 20.464V31.84ZM397.277 7.72V18.448L396.629 19.096L394.613 17.116V10.384L397.277 7.72ZM396.629 7.036L393.929 9.736H387.233L384.533 7.036H396.629ZM386.549 10.384V17.116L384.533 19.096L383.885 18.448V7.72L386.549 10.384ZM395.621 19.456L394.289 20.788H386.873L385.541 19.456L386.873 18.088H394.289L395.621 19.456ZM386.549 29.176L383.885 31.84V20.464L384.533 19.78L386.549 21.796V29.176Z" fill="#FF003D"/>
<path d="M413.45 7.036L410.75 9.7H403.37L401.354 7.684L402.038 7.036H413.45ZM402.686 17.08L400.706 19.096L400.022 18.412V9.016L400.706 8.368L402.686 10.384V17.08ZM411.758 19.42L410.426 20.788H403.01L401.678 19.42L403.01 18.088H410.426L411.758 19.42ZM413.45 29.824L412.766 30.508L410.75 28.492V21.796L412.766 19.78L413.45 20.428V29.824ZM412.082 31.156L411.434 31.84H400.022L402.686 29.176L403.406 29.14H410.066L412.082 31.156Z" fill="#FF003D"/>
<path d="M429.552 7.036L426.852 9.7H419.472L417.456 7.684L418.14 7.036H429.552ZM418.788 17.08L416.808 19.096L416.124 18.412V9.016L416.808 8.368L418.788 10.384V17.08ZM427.86 19.42L426.528 20.788H419.112L417.78 19.42L419.112 18.088H426.528L427.86 19.42ZM429.552 29.824L428.868 30.508L426.852 28.492V21.796L428.868 19.78L429.552 20.428V29.824ZM428.184 31.156L427.536 31.84H416.124L418.788 29.176L419.508 29.14H426.168L428.184 31.156Z" fill="#FF003D"/>
<path d="M444.969 7L442.269 9.7H435.573L432.909 7H444.969ZM434.889 10.348V17.08L432.909 19.096L432.225 18.412V7.684L434.889 10.348ZM442.629 18.088L443.961 19.42L442.629 20.752H435.213L433.881 19.42L435.213 18.088H442.629ZM434.889 21.76V28.456L432.225 31.156V20.428L432.909 19.744L434.889 21.76ZM444.969 31.84H432.909L435.573 29.14H442.269L444.969 31.84Z" fill="#FF003D"/>
<path d="M454.873 31.156L454.189 31.84L452.173 29.824V21.796L454.189 19.78L454.873 20.428V31.156ZM454.873 18.412L454.189 19.096L452.173 17.08V10.564H454.873V18.412ZM460.057 7.036L460.741 7.684L458.725 9.7H448.357L446.341 7.684L446.989 7.036H460.057Z" fill="#FF003D"/>
<path d="M136.888 64.492L134.188 67.156V56.428L134.872 55.78L136.888 57.796V64.492ZM146.248 67.156L145.6 67.84H134.872L137.536 65.176H144.268L146.248 67.156ZM147.616 65.824L146.932 66.508L144.916 64.492V57.796L146.932 55.78L147.616 56.428V65.824ZM147.616 54.412L146.932 55.096L144.916 53.08V46.384L146.932 44.368L147.616 45.052V54.412ZM146.248 43.684L144.268 45.7H137.536L134.872 43.036H145.6L146.248 43.684ZM136.888 53.08L134.872 55.096L134.188 54.412V43.684L136.888 46.384V53.08Z" fill="#FF003D"/>
<path d="M163.753 65.824L163.069 66.472L161.053 64.492V57.76L163.069 55.744L163.753 56.428V65.824ZM163.753 54.412L163.069 55.096L161.053 53.08V46.348L163.069 44.368L163.753 45.016V54.412ZM162.385 43.684L160.405 45.7H153.673L151.657 43.684L152.341 43H161.737L162.385 43.684ZM153.025 53.08L151.009 55.096L150.325 54.412V45.016L151.009 44.368L153.025 46.348V53.08ZM153.025 64.492L151.009 66.472L150.325 65.824V56.428L151.009 55.744L153.025 57.76V64.492ZM162.385 67.156L161.737 67.84H152.341L151.657 67.156L153.673 65.14H160.405L162.385 67.156Z" fill="#FF003D"/>
<path d="M179.855 67.192L179.207 67.84L177.191 65.824V57.796L179.207 55.78L179.855 56.464V67.192ZM179.855 54.448L179.207 55.096L177.191 53.08V45.052L179.207 43.036L179.855 43.72V54.448ZM176.255 50.308V53.08H175.247L170.063 47.932V45.052H170.999L176.255 50.308ZM169.127 53.08L167.111 55.096L166.463 54.448V43.72L167.111 43.036L169.127 45.052V53.08ZM169.127 65.824L167.111 67.84L166.463 67.192V56.464L167.111 55.78L169.127 57.796V65.824Z" fill="#FF003D"/>
<path d="M189.334 41.5959L189.58 41.9826C189.416 42.6271 189.217 43.3068 188.982 44.0216C188.76 44.7248 188.508 45.4455 188.227 46.1837C187.957 46.9103 187.67 47.631 187.365 48.3459C187.072 49.0607 186.779 49.7462 186.486 50.4025H184.078C184.242 49.6994 184.406 48.9611 184.57 48.1877C184.746 47.4142 184.91 46.6408 185.063 45.8673C185.227 45.0939 185.373 44.3439 185.502 43.6173C185.631 42.8908 185.742 42.2169 185.836 41.5959H189.334Z" fill="#FF003D"/>
<path d="M201.555 67.156L200.871 67.84L198.855 65.824V57.796L200.871 55.78L201.555 56.428V67.156ZM201.555 54.412L200.871 55.096L198.855 53.08V46.564H201.555V54.412ZM206.739 43.036L207.423 43.684L205.407 45.7H195.039L193.023 43.684L193.671 43.036H206.739Z" fill="#FF003D"/>
<path d="M237.556 54.412L236.872 55.096L234.856 53.08V45.7L237.556 43V54.412ZM237.556 56.428V67.156L234.856 64.456V57.76L236.872 55.744L237.556 56.428ZM236.872 67.84H222.796L225.496 65.14H234.208L236.872 67.84ZM231.256 64.204H228.592V56.428L229.924 55.096L231.256 56.428V64.204ZM224.812 53.08L222.796 55.096L222.112 54.412V43L224.812 45.7V53.08ZM224.812 57.76V64.456L222.112 67.156V56.428L222.796 55.744L224.812 57.76Z" fill="#FF003D"/>
<path d="M253.505 67.84L250.841 65.176V57.796L252.857 55.78L253.505 56.464V67.84ZM253.505 43.72V54.448L252.857 55.096L250.841 53.116V46.384L253.505 43.72ZM252.857 43.036L250.157 45.736H243.461L240.761 43.036H252.857ZM242.777 46.384V53.116L240.761 55.096L240.113 54.448V43.72L242.777 46.384ZM251.849 55.456L250.517 56.788H243.101L241.769 55.456L243.101 54.088H250.517L251.849 55.456ZM242.777 65.176L240.113 67.84V56.464L240.761 55.78L242.777 57.796V65.176Z" fill="#FF003D"/>
<path d="M269.679 43.036L266.979 45.7H259.599L257.583 43.684L258.267 43.036H269.679ZM258.915 53.08L256.935 55.096L256.251 54.412V45.016L256.935 44.368L258.915 46.384V53.08ZM267.987 55.42L266.655 56.788H259.239L257.907 55.42L259.239 54.088H266.655L267.987 55.42ZM269.679 65.824L268.995 66.508L266.979 64.492V57.796L268.995 55.78L269.679 56.428V65.824ZM268.311 67.156L267.663 67.84H256.251L258.915 65.176L259.635 65.14H266.295L268.311 67.156Z" fill="#FF003D"/>
<path d="M280.164 67.156L279.48 67.84L277.464 65.824V57.796L279.48 55.78L280.164 56.428V67.156ZM280.164 54.412L279.48 55.096L277.464 53.08V46.564H280.164V54.412ZM285.348 43.036L286.032 43.684L284.016 45.7H273.648L271.632 43.684L272.28 43.036H285.348Z" fill="#FF003D"/>
<path d="M300.741 43L298.041 45.7H291.345L288.681 43H300.741ZM290.661 46.348V53.08L288.681 55.096L287.997 54.412V43.684L290.661 46.348ZM298.401 54.088L299.733 55.42L298.401 56.752H290.985L289.653 55.42L290.985 54.088H298.401ZM290.661 57.76V64.456L287.997 67.156V56.428L288.681 55.744L290.661 57.76ZM300.741 67.84H288.681L291.345 65.14H298.041L300.741 67.84Z" fill="#FF003D"/>
<path d="M318.221 54.448L317.537 55.096L315.521 53.08V45.052L317.537 43.036L318.221 43.72V54.448ZM318.221 67.192L317.537 67.84L315.521 65.824V57.796L317.537 55.78L318.221 56.464V67.192Z" fill="#FF003D"/>
<path d="M328.68 67.156L327.996 67.84L325.98 65.824V57.796L327.996 55.78L328.68 56.428V67.156ZM328.68 54.412L327.996 55.096L325.98 53.08V46.564H328.68V54.412ZM333.864 43.036L334.548 43.684L332.532 45.7H322.164L320.148 43.684L320.796 43.036H333.864Z" fill="#FF003D"/>
</g>
<defs>
<filter id="filter0_di" x="0.310059" y="0" width="467.431" height="74.84" filterUnits="userSpaceOnUse" color-interpolation-filters="sRGB">
<feFlood flood-opacity="0" result="BackgroundImageFix"/>
<feColorMatrix in="SourceAlpha" type="matrix" values="0 0 0 0 0 0 0 0 0 0 0 0 0 0 0 0 0 0 127 0"/>
<feMorphology radius="1" operator="dilate" in="SourceAlpha" result="effect1_dropShadow"/>
<feOffset/>
<feGaussianBlur stdDeviation="3"/>
<feColorMatrix type="matrix" values="0 0 0 0 1 0 0 0 0 0 0 0 0 0 0.239216 0 0 0 1 0"/>
<feBlend mode="normal" in2="BackgroundImageFix" result="effect1_dropShadow"/>
<feBlend mode="normal" in="SourceGraphic" in2="effect1_dropShadow" result="shape"/>
<feColorMatrix in="SourceAlpha" type="matrix" values="0 0 0 0 0 0 0 0 0 0 0 0 0 0 0 0 0 0 127 0" result="hardAlpha"/>
<feOffset/>
<feGaussianBlur stdDeviation="1"/>
<feComposite in2="hardAlpha" operator="arithmetic" k2="-1" k3="1"/>
<feColorMatrix type="matrix" values="0 0 0 0 1 0 0 0 0 0 0 0 0 0 0.239216 0 0 0 1 0"/>
<feBlend mode="normal" in2="shape" result="effect2_innerShadow"/>
</filter>
</defs>
</svg>
