<svg width="228" height="36" viewBox="0 0 228 36" fill="none" xmlns="http://www.w3.org/2000/svg">
<path d="M12.35 11.07L11 12.42V6.71401L11.342 6.37201L12.35 7.38001V11.07Z" fill="#FF003D"/>
<path d="M81.35 11.07L80 12.42V6.71401L80.342 6.37201L81.35 7.38001V11.07Z" fill="#FF003D"/>
<path d="M12.35 5.04004V1.69204L11 0.342041V5.70604L11.342 6.04804L12.35 5.04004Z" fill="#FF003D"/>
<path d="M81.35 5.04004V1.69204L80 0.342041V5.70604L80.342 6.04804L81.35 5.04004Z" fill="#FF003D"/>
<path d="M14.8159 6.37199L15.4999 5.70599V1.81799H14.1499V5.70599L14.8159 6.37199Z" fill="#FF003D"/>
<path d="M83.8159 6.37199L84.4999 5.70599V1.81799H83.1499V5.70599L83.8159 6.37199Z" fill="#FF003D"/>
<path d="M17.3718 11.07L18.7218 12.42V6.71401L18.3798 6.37201L17.3718 7.38001V11.07Z" fill="#FF003D"/>
<path d="M86.3718 11.07L87.7218 12.42V6.71401L87.3798 6.37201L86.3718 7.38001V11.07Z" fill="#FF003D"/>
<path d="M18.7218 5.70604V0.342041L17.3718 1.69204V5.04004L18.3798 6.04804L18.7218 5.70604Z" fill="#FF003D"/>
<path d="M87.7218 5.70604V0.342041L86.3718 1.69204V5.04004L87.3798 6.04804L87.7218 5.70604Z" fill="#FF003D"/>
<path d="M17.0478 1.35L18.3798 0H11.3418L12.6918 1.35H17.0478Z" fill="#FF003D"/>
<path d="M86.0478 1.35L87.3798 0H80.3418L81.6918 1.35H86.0478Z" fill="#FF003D"/>
<path d="M160.35 10.728L159 12.078V6.71401L159.342 6.37201L160.35 7.38001V10.728Z" fill="#FF003D"/>
<path d="M159.342 6.02998L160.35 5.03998V1.67398L159 0.34198V5.70598L159.342 6.02998Z" fill="#FF003D"/>
<path d="M164.202 6.876L164.886 6.21L164.202 5.526H160.512L159.828 6.21L160.512 6.876H164.202Z" fill="#FF003D"/>
<path d="M164.706 12.402L165.03 12.078L164.04 11.07H160.674L159.342 12.402H164.706Z" fill="#FF003D"/>
<path d="M165.372 11.736L165.714 11.412V6.71401L165.372 6.37201L164.364 7.38001V10.728L165.372 11.736Z" fill="#FF003D"/>
<path d="M165.372 6.02995L165.714 5.70595V1.00795L165.372 0.665955L164.364 1.67395V5.03995L165.372 6.02995Z" fill="#FF003D"/>
<path d="M164.04 1.35L165.03 0.342L164.706 0H159.342C159.558 0.24 159.774 0.468 159.99 0.684C160.218 0.9 160.446 1.122 160.674 1.35H164.04Z" fill="#FF003D"/>
<path d="M149.681 12.42H143.651L144.983 11.088H148.349L149.681 12.42Z" fill="#FF003D"/>
<path d="M150.023 12.078V6.71401L149.681 6.39001L148.673 7.39801V10.746L150.023 12.078Z" fill="#FF003D"/>
<path d="M144.659 10.746V7.39801L143.651 6.39001L143.309 6.71401V12.078L144.659 10.746Z" fill="#FF003D"/>
<path d="M149.681 6.04801L150.023 5.70601V0.0180054L148.673 1.35001V5.04L149.681 6.04801Z" fill="#FF003D"/>
<path d="M143.651 6.04801L144.659 5.04V1.35001L143.309 0.0180054V5.70601L143.651 6.04801Z" fill="#FF003D"/>
<path d="M142.369 12.42H136.339L137.671 11.07H141.019L142.369 12.42Z" fill="#FF003D"/>
<path d="M135.997 12.078L137.329 10.728V7.38001L136.339 6.37201L135.997 6.71401V12.078Z" fill="#FF003D"/>
<path d="M136.339 6.048L137.329 5.04V1.35L135.997 0V5.706L136.339 6.048Z" fill="#FF003D"/>
<path d="M173.372 12.42H167.342L168.674 11.07H172.022L173.372 12.42Z" fill="#FF003D"/>
<path d="M167 12.078L168.332 10.728V7.38001L167.342 6.37201L167 6.71401V12.078Z" fill="#FF003D"/>
<path d="M167.342 6.048L168.332 5.04V1.35L167 0V5.706L167.342 6.048Z" fill="#FF003D"/>
<path d="M133.796 6.22801L133.13 6.89401H129.422L128.756 6.22801L129.422 5.54401H133.13L133.796 6.22801Z" fill="#FF003D"/>
<path d="M133.292 11.088L134.624 12.42V6.73201L134.3 6.39001L133.292 7.39801V11.088Z" fill="#FF003D"/>
<path d="M129.26 5.05799V1.69199L127.928 0.359985V5.72399L128.252 6.04799L129.26 5.05799Z" fill="#FF003D"/>
<path d="M134.624 5.72399V0.359985L133.292 1.69199V5.05799L134.3 6.04799L134.624 5.72399Z" fill="#FF003D"/>
<path d="M132.95 1.36801L134.3 0.0180054H128.252L129.602 1.36801H132.95Z" fill="#FF003D"/>
<path d="M127.928 12.42L129.26 11.088V7.39801L128.252 6.39001L127.928 6.73201V12.42Z" fill="#FF003D"/>
<path d="M116.868 29.21L116.202 29.876H112.494L111.828 29.21L112.494 28.526H116.202L116.868 29.21Z" fill="#FF003D"/>
<path d="M116.364 34.07L117.696 35.402V29.714L117.372 29.372L116.364 30.38V34.07Z" fill="#FF003D"/>
<path d="M112.332 28.04V24.674L111 23.342V28.706L111.324 29.03L112.332 28.04Z" fill="#FF003D"/>
<path d="M117.696 28.706V23.342L116.364 24.674V28.04L117.372 29.03L117.696 28.706Z" fill="#FF003D"/>
<path d="M116.022 24.35L117.372 23H111.324L112.674 24.35H116.022Z" fill="#FF003D"/>
<path d="M111 35.402L112.332 34.07V30.38L111.324 29.372L111 29.714V35.402Z" fill="#FF003D"/>
<path d="M193.868 6.21L193.202 6.876H189.494L188.828 6.21L189.494 5.526H193.202L193.868 6.21Z" fill="#FF003D"/>
<path d="M193.364 11.07L194.696 12.402V6.71401L194.372 6.37201L193.364 7.38001V11.07Z" fill="#FF003D"/>
<path d="M189.332 5.03998V1.67398L188 0.34198V5.70598L188.324 6.02998L189.332 5.03998Z" fill="#FF003D"/>
<path d="M194.696 5.70598V0.34198L193.364 1.67398V5.03998L194.372 6.02998L194.696 5.70598Z" fill="#FF003D"/>
<path d="M193.022 1.35L194.372 0H188.324L189.674 1.35H193.022Z" fill="#FF003D"/>
<path d="M188 12.402L189.332 11.07V7.38001L188.324 6.37201L188 6.71401V12.402Z" fill="#FF003D"/>
<path d="M156.868 6.21L156.202 6.876H152.494L151.828 6.21L152.494 5.526H156.202L156.868 6.21Z" fill="#FF003D"/>
<path d="M156.364 11.07L157.696 12.402V6.71401L157.372 6.37201L156.364 7.38001V11.07Z" fill="#FF003D"/>
<path d="M152.332 5.03998V1.67398L151 0.34198V5.70598L151.324 6.02998L152.332 5.03998Z" fill="#FF003D"/>
<path d="M157.696 5.70598V0.34198L156.364 1.67398V5.03998L157.372 6.02998L157.696 5.70598Z" fill="#FF003D"/>
<path d="M156.022 1.35L157.372 0H151.324L152.674 1.35H156.022Z" fill="#FF003D"/>
<path d="M151 12.402L152.332 11.07V7.38001L151.324 6.37201L151 6.71401V12.402Z" fill="#FF003D"/>
<path d="M126.462 6.31799L126.624 6.76799C126.168 7.70399 125.718 8.64599 125.274 9.59399C124.842 10.53 124.41 11.472 123.978 12.42H123.564V10.134C123.564 10.098 123.636 9.92399 123.78 9.61199C123.924 9.29999 124.086 8.95199 124.266 8.56799C124.446 8.18399 124.62 7.82399 124.788 7.48799C124.956 7.13999 125.064 6.91199 125.112 6.80399L126.462 6.31799Z" fill="#FF003D"/>
<path d="M123.132 12.42V10.134C123.132 10.098 123.06 9.92399 122.916 9.61199C122.772 9.29999 122.61 8.95199 122.43 8.56799C122.25 8.18399 122.076 7.82399 121.908 7.48799C121.74 7.13999 121.632 6.91199 121.584 6.80399L120.252 6.31799L120.09 6.76799L122.718 12.42H123.132Z" fill="#FF003D"/>
<path d="M126.372 6.048L126.696 5.706V0L125.364 1.35V5.04L126.372 6.048Z" fill="#FF003D"/>
<path d="M120.324 6.048L121.332 5.04V1.35L120 0V5.706L120.324 6.048Z" fill="#FF003D"/>
<path d="M91.35 5.03996L90.342 6.04796L90 5.70596V1.00796L90.342 0.68396L91.35 1.67396V5.03996Z" fill="#FF003D"/>
<path d="M90.342 11.736L91.35 10.746V7.38001L90.342 6.37201L90 6.71401V11.412L90.342 11.736Z" fill="#FF003D"/>
<path d="M95.7058 12.42L96.0298 12.078L95.0398 11.07H91.6738L90.6658 12.078L91.0078 12.42H95.7058Z" fill="#FF003D"/>
<path d="M96.372 11.736L96.714 11.412V6.71401L96.372 6.37201L95.364 7.38001V10.746L96.372 11.736Z" fill="#FF003D"/>
<path d="M96.372 6.04796L96.714 5.70596V1.00796L96.372 0.68396L95.364 1.67396V5.03996L96.372 6.04796Z" fill="#FF003D"/>
<path d="M95.0398 1.35L96.0298 0.342001L95.7058 0H91.0078L90.6658 0.342001L91.6738 1.35H95.0398Z" fill="#FF003D"/>
<path d="M59.5322 11.07L58.2002 12.42V6.71401L58.5242 6.37201L59.5322 7.38001V11.07Z" fill="#FF003D"/>
<path d="M59.5322 5.04V1.35L58.2002 0V5.706L58.5242 6.048L59.5322 5.04Z" fill="#FF003D"/>
<path d="M63.4023 6.87601L64.0683 6.21001L63.4023 5.54401H59.6943L59.0283 6.21001L59.6943 6.87601H63.4023Z" fill="#FF003D"/>
<path d="M64.8962 5.706V0L63.5642 1.35V5.04L64.5722 6.048L64.8962 5.706Z" fill="#FF003D"/>
<path d="M63.5642 11.07L64.8962 12.42V6.71401L64.5722 6.37201L63.5642 7.38001V11.07Z" fill="#FF003D"/>
<path d="M54.266 12.078L53.924 12.42L52.916 11.412V7.39801L53.924 6.39001L54.266 6.71401V12.078Z" fill="#FF003D"/>
<path d="M53.924 6.04798L54.266 5.70598V1.78198H52.916V5.03998L53.924 6.04798Z" fill="#FF003D"/>
<path d="M57.2 0.342005L56.858 0.0180054H50.324L50 0.342005L51.008 1.35001H56.192L57.2 0.342005Z" fill="#FF003D"/>
<path d="M41.7036 12.06L41.3796 12.402H35.6736L37.0056 11.07L37.3656 11.052H40.6956L41.7036 12.06Z" fill="#FF003D"/>
<path d="M42.0456 11.736L42.3876 11.394V6.69601L42.0456 6.37201L41.0376 7.38001V10.728L42.0456 11.736Z" fill="#FF003D"/>
<path d="M40.8755 6.876L41.5415 6.192L40.8755 5.526H37.1675L36.5015 6.192L37.1675 6.876H40.8755Z" fill="#FF003D"/>
<path d="M36.0156 6.03002L37.0056 5.02202V1.67402L36.0156 0.666016L35.6736 0.990016V5.68801L36.0156 6.03002Z" fill="#FF003D"/>
<path d="M41.0374 1.332L42.3874 0H36.6814L36.3394 0.324L37.3474 1.332H41.0374Z" fill="#FF003D"/>
<path d="M210.03 12.06L209.706 12.402H204L205.332 11.07L205.692 11.052H209.022L210.03 12.06Z" fill="#FF003D"/>
<path d="M210.372 11.736L210.714 11.394V6.69601L210.372 6.37201L209.364 7.38001V10.728L210.372 11.736Z" fill="#FF003D"/>
<path d="M209.202 6.876L209.868 6.192L209.202 5.526H205.494L204.828 6.192L205.494 6.876H209.202Z" fill="#FF003D"/>
<path d="M204.342 6.03002L205.332 5.02202V1.67402L204.342 0.666016L204 0.990016V5.68801L204.342 6.03002Z" fill="#FF003D"/>
<path d="M209.364 1.332L210.714 0H205.008L204.666 0.324L205.674 1.332H209.364Z" fill="#FF003D"/>
<path d="M202.03 12.06L201.706 12.402H196L197.332 11.07L197.692 11.052H201.022L202.03 12.06Z" fill="#FF003D"/>
<path d="M202.372 11.736L202.714 11.394V6.69601L202.372 6.37201L201.364 7.38001V10.728L202.372 11.736Z" fill="#FF003D"/>
<path d="M201.202 6.876L201.868 6.192L201.202 5.526H197.494L196.828 6.192L197.494 6.876H201.202Z" fill="#FF003D"/>
<path d="M196.342 6.03002L197.332 5.02202V1.67402L196.342 0.666016L196 0.990016V5.68801L196.342 6.03002Z" fill="#FF003D"/>
<path d="M201.364 1.332L202.714 0H197.008L196.666 0.324L197.674 1.332H201.364Z" fill="#FF003D"/>
<path d="M104.03 12.06L103.706 12.402H98L99.332 11.07L99.692 11.052H103.022L104.03 12.06Z" fill="#FF003D"/>
<path d="M104.372 11.736L104.714 11.394V6.69601L104.372 6.37201L103.364 7.38001V10.728L104.372 11.736Z" fill="#FF003D"/>
<path d="M103.202 6.876L103.868 6.192L103.202 5.526H99.4939L98.8279 6.192L99.4939 6.876H103.202Z" fill="#FF003D"/>
<path d="M98.342 6.03002L99.332 5.02202V1.67402L98.342 0.666016L98 0.990016V5.68801L98.342 6.03002Z" fill="#FF003D"/>
<path d="M103.364 1.332L104.714 0H99.0078L98.6658 0.324L99.6738 1.332H103.364Z" fill="#FF003D"/>
<path d="M125.03 35.06L124.706 35.402H119L120.332 34.07L120.692 34.052H124.022L125.03 35.06Z" fill="#FF003D"/>
<path d="M125.372 34.736L125.714 34.394V29.696L125.372 29.372L124.364 30.38V33.728L125.372 34.736Z" fill="#FF003D"/>
<path d="M124.202 29.876L124.868 29.192L124.202 28.526H120.494L119.828 29.192L120.494 29.876H124.202Z" fill="#FF003D"/>
<path d="M119.342 29.03L120.332 28.022V24.674L119.342 23.666L119 23.99V28.688L119.342 29.03Z" fill="#FF003D"/>
<path d="M124.364 24.332L125.714 23H120.008L119.666 23.324L120.674 24.332H124.364Z" fill="#FF003D"/>
<path d="M34.35 12.078L34.008 12.402L33 11.394V7.38001L34.008 6.37201L34.35 6.71401V12.078Z" fill="#FF003D"/>
<path d="M34.008 6.03L34.35 5.706V0.342L34.008 0L33 1.008V5.022L34.008 6.03Z" fill="#FF003D"/>
<path d="M150.35 35.078L150.008 35.402L149 34.394V30.38L150.008 29.372L150.35 29.714V35.078Z" fill="#FF003D"/>
<path d="M150.008 29.03L150.35 28.706V23.342L150.008 23L149 24.008V28.022L150.008 29.03Z" fill="#FF003D"/>
<path d="M25.2019 5.54401L25.8679 6.21001L25.2019 6.87601H21.4939L20.8279 6.21001L21.4939 5.54401H25.2019Z" fill="#FF003D"/>
<path d="M25.0218 1.35L26.3718 0H20.3418L21.6738 1.35H25.0218Z" fill="#FF003D"/>
<path d="M21.332 5.04004V1.67404L20 0.342041V5.70604L20.342 6.04804L21.332 5.04004Z" fill="#FF003D"/>
<path d="M21.332 10.728V7.38001L20.342 6.37201L20 6.71401V12.078L21.332 10.728Z" fill="#FF003D"/>
<path d="M20.3418 12.42H26.3718L25.0218 11.07H21.6738L20.3418 12.42Z" fill="#FF003D"/>
<path d="M179.202 5.54401L179.868 6.21001L179.202 6.87601H175.494L174.828 6.21001L175.494 5.54401H179.202Z" fill="#FF003D"/>
<path d="M179.022 1.35L180.372 0H174.342L175.674 1.35H179.022Z" fill="#FF003D"/>
<path d="M175.332 5.04004V1.67404L174 0.342041V5.70604L174.342 6.04804L175.332 5.04004Z" fill="#FF003D"/>
<path d="M175.332 10.728V7.38001L174.342 6.37201L174 6.71401V12.078L175.332 10.728Z" fill="#FF003D"/>
<path d="M174.342 12.42H180.372L179.022 11.07H175.674L174.342 12.42Z" fill="#FF003D"/>
<path d="M140.202 28.544L140.868 29.21L140.202 29.876H136.494L135.828 29.21L136.494 28.544H140.202Z" fill="#FF003D"/>
<path d="M140.022 24.35L141.372 23H135.342L136.674 24.35H140.022Z" fill="#FF003D"/>
<path d="M136.332 28.04V24.674L135 23.342V28.706L135.342 29.048L136.332 28.04Z" fill="#FF003D"/>
<path d="M136.332 33.728V30.38L135.342 29.372L135 29.714V35.078L136.332 33.728Z" fill="#FF003D"/>
<path d="M135.342 35.42H141.372L140.022 34.07H136.674L135.342 35.42Z" fill="#FF003D"/>
<path d="M218.202 5.54401L218.868 6.21001L218.202 6.87601H214.494L213.828 6.21001L214.494 5.54401H218.202Z" fill="#FF003D"/>
<path d="M218.022 1.35L219.372 0H213.342L214.674 1.35H218.022Z" fill="#FF003D"/>
<path d="M214.332 5.04004V1.67404L213 0.342041V5.70604L213.342 6.04804L214.332 5.04004Z" fill="#FF003D"/>
<path d="M214.332 10.728V7.38001L213.342 6.37201L213 6.71401V12.078L214.332 10.728Z" fill="#FF003D"/>
<path d="M213.342 12.42H219.372L218.022 11.07H214.674L213.342 12.42Z" fill="#FF003D"/>
<path d="M72.2019 5.54401L72.8679 6.21001L72.2019 6.87601H68.4939L67.8279 6.21001L68.4939 5.54401H72.2019Z" fill="#FF003D"/>
<path d="M72.0218 1.35L73.3718 0H67.3418L68.6738 1.35H72.0218Z" fill="#FF003D"/>
<path d="M68.332 5.04004V1.67404L67 0.342041V5.70604L67.342 6.04804L68.332 5.04004Z" fill="#FF003D"/>
<path d="M68.332 10.728V7.38001L67.342 6.37201L67 6.71401V12.078L68.332 10.728Z" fill="#FF003D"/>
<path d="M67.3418 12.42H73.3718L72.0218 11.07H68.6738L67.3418 12.42Z" fill="#FF003D"/>
<path d="M6.858 0.0180054L7.2 0.342005L6.192 1.35001H1.008L0 0.342005L0.324 0.0180054H6.858Z" fill="#FF003D"/>
<path d="M3.92402 6.04798L4.26602 5.70598V1.78198H2.91602V5.03998L3.92402 6.04798Z" fill="#FF003D"/>
<path d="M3.92402 12.42L4.26602 12.078V6.71395L3.92402 6.38995L2.91602 7.39795V11.412L3.92402 12.42Z" fill="#FF003D"/>
<path d="M111.858 0L112.2 0.324L111.192 1.332H106.008L105 0.324L105.324 0H111.858Z" fill="#FF003D"/>
<path d="M108.924 6.02998L109.266 5.68798V1.76398H107.916V5.02198L108.924 6.02998Z" fill="#FF003D"/>
<path d="M108.924 12.4019L109.266 12.0599V6.69595L108.924 6.37195L107.916 7.37995V11.3939L108.924 12.4019Z" fill="#FF003D"/>
<path d="M157.858 23L158.2 23.324L157.192 24.332H152.008L151 23.324L151.324 23H157.858Z" fill="#FF003D"/>
<path d="M154.924 29.03L155.266 28.688V24.764H153.916V28.022L154.924 29.03Z" fill="#FF003D"/>
<path d="M154.924 35.4019L155.266 35.0599V29.6959L154.924 29.3719L153.916 30.3799V34.3939L154.924 35.4019Z" fill="#FF003D"/>
<path d="M133.858 23L134.2 23.324L133.192 24.332H128.008L127 23.324L127.324 23H133.858Z" fill="#FF003D"/>
<path d="M130.924 29.03L131.266 28.688V24.764H129.916V28.022L130.924 29.03Z" fill="#FF003D"/>
<path d="M130.924 35.4019L131.266 35.0599V29.6959L130.924 29.3719L129.916 30.3799V34.3939L130.924 35.4019Z" fill="#FF003D"/>
<path d="M226.858 0L227.2 0.324L226.192 1.332H221.008L220 0.324L220.324 0H226.858Z" fill="#FF003D"/>
<path d="M223.924 6.02998L224.266 5.68798V1.76398H222.916V5.02198L223.924 6.02998Z" fill="#FF003D"/>
<path d="M223.924 12.4019L224.266 12.0599V6.69595L223.924 6.37195L222.916 7.37995V11.3939L223.924 12.4019Z" fill="#FF003D"/>
<path d="M109.684 29.4161V34.7801L108.334 33.4301V30.0821L109.342 29.0741L109.684 29.4161Z" fill="#FF003D"/>
<path d="M102.304 35.1221H109.342L108.01 33.7721H103.654L102.304 35.1221Z" fill="#FF003D"/>
<path d="M109.342 28.75L109.684 28.408V22.702L108.334 24.052V27.742L109.342 28.75Z" fill="#FF003D"/>
<path d="M105.202 33.3041H106.534V29.4161L105.868 28.7501L105.202 29.4161V33.3041Z" fill="#FF003D"/>
<path d="M103.312 33.4301V30.0821L102.304 29.0741L101.962 29.4161V34.7801L103.312 33.4301Z" fill="#FF003D"/>
<path d="M102.304 28.75L103.312 27.742V24.052L101.962 22.702V28.408L102.304 28.75Z" fill="#FF003D"/>
<path d="M91.684 34.78L91.342 35.122L90.334 34.114V30.1L91.342 29.092L91.684 29.416V34.78Z" fill="#FF003D"/>
<path d="M91.342 28.7501L91.684 28.4081V24.4841H90.334V27.7421L91.342 28.7501Z" fill="#FF003D"/>
<path d="M94.618 23.0441L94.276 22.7201H87.742L87.418 23.0441L88.426 24.0521H93.61L94.618 23.0441Z" fill="#FF003D"/>
<path d="M85.5735 22L85.6965 22.1934C85.6145 22.5156 85.5149 22.8555 85.3977 23.2129C85.2864 23.5645 85.1604 23.9248 85.0198 24.2939C84.885 24.6572 84.7415 25.0176 84.5891 25.375C84.4426 25.7324 84.2961 26.0752 84.1497 26.4033H82.9456C83.0276 26.0518 83.1096 25.6826 83.1917 25.2959C83.2795 24.9092 83.3616 24.5225 83.4377 24.1357C83.5198 23.749 83.593 23.374 83.6575 23.0107C83.7219 22.6475 83.7776 22.3105 83.8245 22H85.5735Z" fill="#FF003D"/>
<path d="M75.4697 34.114L74.4617 35.122L74.1377 34.798V29.434L74.4617 29.092L75.4697 30.1V34.114Z" fill="#FF003D"/>
<path d="M80.5097 35.122L80.8337 34.798V29.434L80.5097 29.092L79.5017 30.1V34.114L80.5097 35.122Z" fill="#FF003D"/>
<path d="M80.5097 28.7501L80.8337 28.4261V23.0621L80.5097 22.7201L79.5017 23.7281V27.7421L80.5097 28.7501Z" fill="#FF003D"/>
<path d="M79.0337 27.742V26.356L76.4057 23.728H75.9377V25.168L78.5297 27.742H79.0337Z" fill="#FF003D"/>
<path d="M74.4617 28.7501L75.4697 27.7421V23.7281L74.4617 22.7201L74.1377 23.0621V28.4261L74.4617 28.7501Z" fill="#FF003D"/>
<path d="M72.0989 23.044L71.1089 24.052H67.7429L66.7349 23.044L67.0769 22.702H71.7749L72.0989 23.044Z" fill="#FF003D"/>
<path d="M72.4409 28.7501L72.7829 28.4081V23.7101L72.4409 23.3861L71.4329 24.3761V27.7421L72.4409 28.7501Z" fill="#FF003D"/>
<path d="M72.4409 34.4381L72.7829 34.1141V29.4161L72.4409 29.0741L71.4329 30.0821V33.4481L72.4409 34.4381Z" fill="#FF003D"/>
<path d="M71.7749 35.1221L72.0989 34.7801L71.1089 33.7721H67.7429L66.7349 34.7801L67.0769 35.1221H71.7749Z" fill="#FF003D"/>
<path d="M66.4108 34.4381L67.4188 33.4481V30.0821L66.4108 29.0741L66.0688 29.4161V34.1141L66.4108 34.4381Z" fill="#FF003D"/>
<path d="M66.4108 28.7501L67.4188 27.7421V24.3761L66.4108 23.3861L66.0688 23.7101V28.4081L66.4108 28.7501Z" fill="#FF003D"/>
<path d="M64.714 28.4081L64.372 28.7501L63.364 27.7421V24.3941L64.372 23.3861L64.714 23.7281V28.4081Z" fill="#FF003D"/>
<path d="M64.372 34.456L64.714 34.114V29.416L64.372 29.092L63.364 30.1V33.448L64.372 34.456Z" fill="#FF003D"/>
<path d="M63.706 35.122L64.03 34.78L63.04 33.79H59.674L58.342 35.122H63.706Z" fill="#FF003D"/>
<path d="M58 34.78L59.35 33.448V30.1L58.342 29.092L58 29.416V34.78Z" fill="#FF003D"/>
<path d="M63.04 24.0521L64.03 23.0441L63.706 22.7201H58.342L59.674 24.0521H63.04Z" fill="#FF003D"/>
<path d="M58.342 28.7501L59.35 27.7421V24.3941L58 23.0441V28.4081L58.342 28.7501Z" fill="#FF003D"/>
<path d="M9.35 5.706L9.008 6.03L8 5.022V1.008L9.008 0L9.35 0.342V5.706Z" fill="#FF003D"/>
<path d="M9.008 12.402L9.35 12.078V6.71401L9.008 6.37201L8 7.38001V11.394L9.008 12.402Z" fill="#FF003D"/>
</svg>
