<svg width="145" height="10" viewBox="0 0 145 10" fill="none" xmlns="http://www.w3.org/2000/svg">
<path d="M32.5648 4.536C32.5648 4.56 32.5568 4.58 32.5408 4.596L32.3128 4.812C32.2728 4.852 32.2368 4.852 32.2048 4.812L31.5448 4.164C31.5288 4.148 31.5208 4.128 31.5208 4.104V1.908C31.5208 1.884 31.5288 1.864 31.5448 1.848L32.2048 1.188C32.2368 1.156 32.2728 1.156 32.3128 1.188L32.5408 1.416C32.5568 1.432 32.5648 1.452 32.5648 1.476V4.536ZM31.4488 1.752C31.4328 1.768 31.4128 1.776 31.3888 1.776H28.9768C28.9528 1.776 28.9328 1.768 28.9168 1.752L28.0408 0.875999C28.0088 0.843999 27.9968 0.811999 28.0048 0.779999C28.0208 0.748 28.0488 0.732 28.0888 0.732H31.8208C31.8448 0.732 31.8648 0.74 31.8808 0.756L32.1088 0.972C32.1488 1.012 32.1488 1.052 32.1088 1.092L31.4488 1.752ZM29.0608 7.824C29.0608 7.848 29.0528 7.868 29.0368 7.884L28.3768 8.544C28.3368 8.584 28.2968 8.584 28.2568 8.544L28.0408 8.328C28.0248 8.312 28.0168 8.292 28.0168 8.268V5.196C28.0168 5.172 28.0248 5.152 28.0408 5.136L28.2568 4.92C28.2968 4.88 28.3368 4.88 28.3768 4.92L29.0368 5.58C29.0528 5.596 29.0608 5.616 29.0608 5.64V7.824ZM28.7488 9C28.7248 9 28.7048 8.992 28.6888 8.976L28.4728 8.76C28.4328 8.728 28.4328 8.692 28.4728 8.652L29.1328 7.992C29.1488 7.976 29.1688 7.968 29.1928 7.968H31.6168C31.6488 7.968 31.6648 7.976 31.6648 7.992L32.5408 8.856C32.5728 8.888 32.5808 8.92 32.5648 8.952C32.5488 8.984 32.5208 9 32.4808 9H28.7488ZM31.5568 5.364C31.5408 5.38 31.5208 5.388 31.4968 5.388H29.0848C29.0608 5.388 29.0408 5.38 29.0248 5.364L28.5808 4.932C28.5408 4.892 28.5408 4.852 28.5808 4.812L29.0248 4.368C29.0408 4.352 29.0608 4.344 29.0848 4.344H31.4968C31.5208 4.344 31.5408 4.352 31.5568 4.368L32.0008 4.812C32.0408 4.852 32.0408 4.892 32.0008 4.932L31.5568 5.364Z" fill="#FF003D"/>
<path d="M16.3936 4.812C16.3536 4.852 16.3136 4.852 16.2736 4.812L15.6136 4.152C15.5976 4.136 15.5896 4.116 15.5896 4.092V1.476C15.5896 1.452 15.5976 1.432 15.6136 1.416L16.2736 0.756C16.3136 0.716 16.3536 0.716 16.3936 0.756L16.6096 0.972C16.6256 0.987999 16.6336 1.008 16.6336 1.032V4.536C16.6336 4.56 16.6256 4.58 16.6096 4.596L16.3936 4.812ZM16.3936 8.976C16.3536 9.016 16.3136 9.016 16.2736 8.976L15.6136 8.316C15.5976 8.3 15.5896 8.28 15.5896 8.256V5.64C15.5896 5.616 15.5976 5.596 15.6136 5.58L16.2736 4.92C16.3136 4.88 16.3536 4.88 16.3936 4.92L16.6096 5.136C16.6256 5.152 16.6336 5.172 16.6336 5.196V8.7C16.6336 8.724 16.6256 8.744 16.6096 8.76L16.3936 8.976Z" fill="#FF003D"/>
<path d="M64.6094 8.916C64.6094 8.956 64.5934 8.984 64.5614 9C64.5294 9.016 64.4974 9.008 64.4654 8.976L63.5894 8.1C63.5734 8.084 63.5654 8.064 63.5654 8.04V5.628C63.5654 5.604 63.5734 5.584 63.5894 5.568L64.2494 4.908C64.2894 4.868 64.3254 4.868 64.3574 4.908L64.5854 5.124C64.6014 5.14 64.6094 5.16 64.6094 5.184V8.916ZM64.6094 4.524C64.6094 4.548 64.6014 4.568 64.5854 4.584L64.3574 4.812C64.3254 4.852 64.2894 4.852 64.2494 4.812L63.5894 4.152C63.5734 4.136 63.5654 4.116 63.5654 4.092V1.68C63.5654 1.656 63.5734 1.636 63.5894 1.62L64.4654 0.744C64.4974 0.712 64.5294 0.704 64.5614 0.719999C64.5934 0.736 64.6094 0.764 64.6094 0.804V4.524ZM61.1054 4.092C61.1054 4.116 61.0974 4.136 61.0814 4.152L60.4214 4.812C60.3814 4.852 60.3414 4.852 60.3014 4.812L60.0854 4.584C60.0694 4.568 60.0614 4.548 60.0614 4.524V0.804C60.0614 0.764 60.0774 0.736 60.1094 0.719999C60.1414 0.704 60.1694 0.712 60.1934 0.744L61.0814 1.62C61.0974 1.636 61.1054 1.656 61.1054 1.68V4.092ZM63.6014 5.352C63.5854 5.368 63.5654 5.376 63.5414 5.376H61.1174C61.0934 5.376 61.0734 5.368 61.0574 5.352L60.6254 4.92C60.5854 4.88 60.5854 4.84 60.6254 4.8L61.0574 4.368C61.0734 4.352 61.0934 4.344 61.1174 4.344H63.5414C63.5654 4.344 63.5854 4.352 63.6014 4.368L64.0334 4.8C64.0734 4.84 64.0734 4.88 64.0334 4.92L63.6014 5.352Z" fill="#FF003D"/>
<path d="M79.6528 1.764H77.2048C77.1808 1.764 77.1608 1.756 77.1448 1.74L76.4848 1.08C76.4448 1.04 76.4448 1 76.4848 0.96L76.7008 0.756C76.7168 0.74 76.7368 0.732 76.7608 0.732H80.4928C80.5328 0.732 80.5608 0.748 80.5768 0.779999C80.5928 0.811999 80.5848 0.843999 80.5528 0.875999L79.6528 1.764ZM76.3888 4.812C76.3488 4.852 76.3088 4.852 76.2688 4.812L76.0528 4.584C76.0368 4.568 76.0288 4.548 76.0288 4.524V1.464C76.0288 1.44 76.0368 1.42 76.0528 1.404L76.2688 1.188C76.3088 1.148 76.3488 1.148 76.3888 1.188L77.0368 1.848C77.0528 1.864 77.0608 1.884 77.0608 1.908V4.092C77.0608 4.116 77.0528 4.136 77.0368 4.152L76.3888 4.812ZM79.5688 5.364C79.5528 5.38 79.5328 5.388 79.5088 5.388H77.0848C77.0608 5.388 77.0408 5.38 77.0248 5.364L76.5928 4.92C76.5528 4.88 76.5528 4.84 76.5928 4.8L77.0248 4.368C77.0408 4.352 77.0608 4.344 77.0848 4.344H79.5088C79.5328 4.344 79.5528 4.352 79.5688 4.368L80.0008 4.8C80.0408 4.84 80.0408 4.88 80.0008 4.92L79.5688 5.364ZM80.3248 8.544C80.2848 8.584 80.2488 8.584 80.2168 8.544L79.5568 7.884C79.5408 7.868 79.5328 7.848 79.5328 7.824V5.64C79.5328 5.616 79.5408 5.596 79.5568 5.58L80.2168 4.92C80.2488 4.888 80.2848 4.888 80.3248 4.92L80.5528 5.124C80.5688 5.14 80.5768 5.16 80.5768 5.184V8.256C80.5768 8.28 80.5688 8.3 80.5528 8.316L80.3248 8.544ZM79.8928 8.976C79.8768 8.992 79.8568 9 79.8328 9H76.1008C76.0608 9 76.0328 8.984 76.0168 8.952C76.0088 8.92 76.0208 8.888 76.0528 8.856L76.9168 7.992C76.9328 7.976 76.9528 7.968 76.9768 7.968L77.2168 7.956H79.3888C79.4128 7.956 79.4328 7.964 79.4488 7.98L80.1088 8.64C80.1408 8.68 80.1408 8.716 80.1088 8.748L79.8928 8.976Z" fill="#FF003D"/>
<path d="M95.8808 8.976C95.8648 8.992 95.8448 9 95.8208 9H92.7608C92.7368 9 92.7168 8.992 92.7008 8.976L92.4848 8.76C92.4448 8.728 92.4448 8.692 92.4848 8.652L93.1448 7.992C93.1608 7.976 93.1808 7.968 93.2048 7.968H95.3888C95.4128 7.968 95.4328 7.976 95.4488 7.992L96.1088 8.652C96.1408 8.692 96.1408 8.728 96.1088 8.76L95.8808 8.976ZM96.5648 8.268C96.5648 8.292 96.5568 8.312 96.5408 8.328L96.3248 8.544C96.2848 8.584 96.2488 8.584 96.2168 8.544L95.5568 7.884C95.5408 7.868 95.5328 7.848 95.5328 7.824V5.64C95.5328 5.616 95.5408 5.596 95.5568 5.58L96.2168 4.92C96.2488 4.888 96.2848 4.888 96.3248 4.92L96.5408 5.136C96.5568 5.152 96.5648 5.172 96.5648 5.196V8.268ZM95.6768 1.752C95.6768 1.768 95.6608 1.776 95.6288 1.776H93.2048C93.1808 1.776 93.1608 1.768 93.1448 1.752L92.4848 1.092C92.4448 1.052 92.4448 1.012 92.4848 0.972L92.7008 0.756C92.7168 0.74 92.7368 0.732 92.7608 0.732H96.4928C96.5328 0.732 96.5608 0.748 96.5768 0.779999C96.5928 0.811999 96.5848 0.843999 96.5528 0.875999L95.6768 1.752ZM96.0008 4.812C96.0408 4.852 96.0408 4.892 96.0008 4.932L95.5688 5.364C95.5528 5.38 95.5328 5.388 95.5088 5.388H93.0848C93.0608 5.388 93.0408 5.38 93.0248 5.364L92.5928 4.932C92.5528 4.892 92.5528 4.852 92.5928 4.812L93.0248 4.368C93.0408 4.352 93.0608 4.344 93.0848 4.344H95.5088C95.5328 4.344 95.5528 4.352 95.5688 4.368L96.0008 4.812ZM93.0608 7.824C93.0608 7.848 93.0528 7.868 93.0368 7.884L92.3768 8.544C92.3368 8.584 92.2968 8.584 92.2568 8.544L92.0528 8.328C92.0368 8.312 92.0288 8.292 92.0288 8.268V5.196C92.0288 5.172 92.0368 5.152 92.0528 5.136L92.2568 4.92C92.2968 4.88 92.3368 4.88 92.3768 4.92L93.0368 5.58C93.0528 5.596 93.0608 5.616 93.0608 5.64V7.824ZM93.0608 4.104C93.0608 4.128 93.0528 4.148 93.0368 4.164L92.3768 4.812C92.3368 4.852 92.2968 4.852 92.2568 4.812L92.0528 4.596C92.0368 4.58 92.0288 4.56 92.0288 4.536V1.476C92.0288 1.452 92.0368 1.432 92.0528 1.416L92.2568 1.188C92.2968 1.148 92.3368 1.148 92.3768 1.188L93.0368 1.848C93.0528 1.864 93.0608 1.884 93.0608 1.908V4.104Z" fill="#FF003D"/>
<path d="M112.555 8.916C112.555 8.956 112.539 8.984 112.507 9C112.483 9.016 112.455 9.008 112.423 8.976L111.535 8.1C111.519 8.1 111.511 8.084 111.511 8.052V5.64C111.511 5.616 111.519 5.596 111.535 5.58L112.195 4.92C112.235 4.88 112.275 4.88 112.315 4.92L112.531 5.136C112.547 5.152 112.555 5.172 112.555 5.196V8.916ZM112.555 4.536C112.555 4.56 112.547 4.58 112.531 4.596L112.315 4.812C112.275 4.852 112.235 4.852 112.195 4.812L111.535 4.152C111.519 4.136 111.511 4.116 111.511 4.092V1.908C111.511 1.884 111.519 1.864 111.535 1.848L112.423 0.972C112.455 0.94 112.483 0.932 112.507 0.948C112.539 0.964 112.555 0.992 112.555 1.032V4.536ZM111.439 1.74C111.423 1.756 111.403 1.764 111.379 1.764H109.183C109.159 1.764 109.139 1.756 109.123 1.74L108.259 0.875999C108.227 0.843999 108.219 0.811999 108.235 0.779999C108.251 0.748 108.279 0.732 108.319 0.732H112.255C112.295 0.732 112.323 0.748 112.339 0.779999C112.355 0.811999 112.347 0.843999 112.315 0.875999L111.439 1.74Z" fill="#FF003D"/>
<path d="M144.565 4.524C144.565 4.548 144.557 4.568 144.541 4.584L144.313 4.812C144.273 4.852 144.237 4.852 144.205 4.812L143.545 4.152C143.529 4.136 143.521 4.116 143.521 4.092V1.908C143.521 1.884 143.529 1.864 143.545 1.848L144.205 1.188C144.237 1.156 144.273 1.156 144.313 1.188L144.541 1.404C144.557 1.42 144.565 1.44 144.565 1.464V4.524ZM143.449 1.74C143.433 1.756 143.413 1.764 143.389 1.764H141.193C141.169 1.764 141.149 1.756 141.133 1.74L140.473 1.08C140.433 1.04 140.433 1 140.473 0.96L140.689 0.744C140.705 0.727999 140.725 0.719999 140.749 0.719999H143.821C143.845 0.719999 143.865 0.727999 143.881 0.744L144.109 0.96C144.149 1 144.149 1.04 144.109 1.08L143.449 1.74ZM141.061 4.092C141.061 4.116 141.053 4.136 141.037 4.152L140.377 4.812C140.337 4.852 140.297 4.852 140.257 4.812L140.041 4.584C140.025 4.568 140.017 4.548 140.017 4.524V1.464C140.017 1.44 140.025 1.42 140.041 1.404L140.257 1.188C140.297 1.148 140.337 1.148 140.377 1.188L141.037 1.848C141.053 1.864 141.061 1.884 141.061 1.908V4.092ZM144.001 4.8C144.041 4.84 144.041 4.88 144.001 4.92L143.557 5.352C143.541 5.368 143.521 5.376 143.497 5.376H141.085C141.061 5.376 141.041 5.368 141.025 5.352L140.581 4.92C140.541 4.88 140.541 4.84 140.581 4.8L141.025 4.368C141.041 4.352 141.061 4.344 141.085 4.344H143.533L144.001 4.8ZM143.881 8.976C143.865 8.992 143.845 9 143.821 9H140.089C140.049 9 140.021 8.984 140.005 8.952C139.997 8.92 140.009 8.888 140.041 8.856L140.905 7.992C140.921 7.976 140.941 7.968 140.965 7.968L141.217 7.956H143.389C143.413 7.956 143.433 7.964 143.449 7.98L144.109 8.64C144.141 8.68 144.141 8.716 144.109 8.748L143.881 8.976ZM144.565 8.256C144.565 8.28 144.557 8.3 144.541 8.316L144.313 8.544C144.273 8.584 144.237 8.584 144.205 8.544L143.545 7.884C143.529 7.868 143.521 7.848 143.521 7.824V5.628C143.521 5.604 143.529 5.584 143.545 5.568L144.205 4.908C144.237 4.876 144.273 4.876 144.313 4.908L144.541 5.124C144.557 5.14 144.565 5.16 144.565 5.184V8.256Z" fill="#FF003D"/>
<path d="M44.3427 9C44.3027 9 44.2747 8.984 44.2587 8.952C44.2507 8.92 44.2627 8.888 44.2947 8.856L45.1947 7.968H47.4147C47.4387 7.968 47.4587 7.976 47.4747 7.992L48.3507 8.856C48.3827 8.888 48.3907 8.92 48.3747 8.952C48.3587 8.984 48.3307 9 48.2907 9H44.3427ZM48.5907 8.7C48.5907 8.74 48.5747 8.768 48.5427 8.784C48.5187 8.8 48.4907 8.792 48.4587 8.76L47.5707 7.884C47.5547 7.868 47.5467 7.848 47.5467 7.824V5.64C47.5467 5.616 47.5547 5.596 47.5707 5.58L48.2307 4.92C48.2707 4.88 48.3107 4.88 48.3507 4.92L48.5667 5.136C48.5827 5.152 48.5907 5.172 48.5907 5.196V8.7ZM48.0267 4.812C48.0667 4.852 48.0667 4.892 48.0267 4.932L47.5947 5.364C47.5787 5.38 47.5587 5.388 47.5347 5.388H45.1107C45.0867 5.388 45.0667 5.38 45.0507 5.364L44.6187 4.932C44.5787 4.892 44.5787 4.852 44.6187 4.812L45.0507 4.368C45.0667 4.352 45.0867 4.344 45.1107 4.344H47.5347C47.5587 4.344 47.5787 4.352 47.5947 4.368L48.0267 4.812ZM48.5907 4.536C48.5907 4.56 48.5827 4.58 48.5667 4.596L48.3507 4.812C48.3107 4.852 48.2707 4.852 48.2307 4.812L47.5707 4.152C47.5547 4.136 47.5467 4.116 47.5467 4.092V1.908C47.5467 1.884 47.5547 1.864 47.5707 1.848L48.4587 0.972C48.4907 0.94 48.5187 0.932 48.5427 0.948C48.5747 0.964 48.5907 0.992 48.5907 1.032V4.536ZM47.4747 1.74C47.4587 1.756 47.4387 1.764 47.4147 1.764H45.1947L44.2947 0.875999C44.2627 0.843999 44.2507 0.811999 44.2587 0.779999C44.2747 0.748 44.3027 0.732 44.3427 0.732H48.2907C48.3307 0.732 48.3587 0.748 48.3747 0.779999C48.3907 0.811999 48.3827 0.843999 48.3507 0.875999L47.4747 1.74Z" fill="#FF003D"/>
<path d="M5.32481 8.532C5.28481 8.572 5.24881 8.572 5.21681 8.532L4.55681 7.884C4.54081 7.868 4.53281 7.848 4.53281 7.824V5.628C4.53281 5.604 4.54081 5.584 4.55681 5.568L5.21681 4.908C5.24881 4.876 5.28481 4.876 5.32481 4.908L5.55281 5.124C5.56881 5.14 5.57681 5.16 5.57681 5.184V8.256C5.57681 8.28 5.56881 8.3 5.55281 8.316L5.32481 8.532ZM5.32481 4.812C5.28481 4.852 5.24881 4.852 5.21681 4.812L4.55681 4.152C4.54081 4.136 4.53281 4.116 4.53281 4.092V1.896C4.53281 1.872 4.54081 1.852 4.55681 1.836L5.21681 1.188C5.24881 1.156 5.28481 1.156 5.32481 1.188L5.55281 1.404C5.56881 1.42 5.57681 1.44 5.57681 1.464V4.524C5.57681 4.548 5.56881 4.568 5.55281 4.584L5.32481 4.812ZM4.46081 1.74C4.44481 1.756 4.42481 1.764 4.40081 1.764H2.20481C2.18081 1.764 2.16081 1.756 2.14481 1.74L1.48481 1.08C1.44481 1.04 1.44481 1 1.48481 0.96L1.70081 0.744C1.71681 0.727999 1.73681 0.719999 1.76081 0.719999H4.83281C4.85681 0.719999 4.87681 0.727999 4.89281 0.744L5.10881 0.96C5.14881 1 5.14881 1.04 5.10881 1.08L4.46081 1.74ZM1.38881 4.812C1.34881 4.852 1.30881 4.852 1.26881 4.812L1.05281 4.584C1.03681 4.568 1.02881 4.548 1.02881 4.524V1.464C1.02881 1.44 1.03681 1.42 1.05281 1.404L1.26881 1.188C1.30881 1.148 1.34881 1.148 1.38881 1.188L2.04881 1.836C2.06481 1.852 2.07281 1.872 2.07281 1.896V4.092C2.07281 4.116 2.06481 4.136 2.04881 4.152L1.38881 4.812ZM1.38881 8.532C1.34881 8.572 1.30881 8.572 1.26881 8.532L1.05281 8.316C1.03681 8.3 1.02881 8.28 1.02881 8.256V5.184C1.02881 5.16 1.03681 5.14 1.05281 5.124L1.26881 4.908C1.30881 4.868 1.34881 4.868 1.38881 4.908L2.04881 5.568C2.06481 5.584 2.07281 5.604 2.07281 5.628V7.824C2.07281 7.848 2.06481 7.868 2.04881 7.884L1.38881 8.532ZM4.89281 8.976C4.87681 8.992 4.85681 9 4.83281 9H1.76081C1.73681 9 1.71681 8.992 1.70081 8.976L1.48481 8.748C1.44481 8.716 1.44481 8.68 1.48481 8.64L2.14481 7.98C2.16081 7.964 2.18081 7.956 2.20481 7.956H4.40081C4.42481 7.956 4.44481 7.964 4.46081 7.98L5.10881 8.64C5.14081 8.68 5.14081 8.716 5.10881 8.748L4.89281 8.976Z" fill="#FF003D"/>
<path d="M127.893 8.976C127.877 8.992 127.857 9 127.833 9H124.761C124.737 9 124.717 8.992 124.701 8.976L124.485 8.76C124.445 8.728 124.445 8.692 124.485 8.652L125.145 7.992C125.161 7.976 125.181 7.968 125.205 7.968H127.389C127.413 7.968 127.433 7.976 127.449 7.992L128.109 8.652C128.141 8.692 128.141 8.728 128.109 8.76L127.893 8.976ZM128.565 8.256C128.565 8.28 128.557 8.3 128.541 8.316L128.325 8.544C128.285 8.584 128.249 8.584 128.217 8.544L127.557 7.884C127.541 7.868 127.533 7.848 127.533 7.824V5.64C127.533 5.616 127.541 5.596 127.557 5.58L128.217 4.92C128.249 4.888 128.285 4.888 128.325 4.92L128.541 5.136C128.557 5.152 128.565 5.172 128.565 5.196V8.256ZM128.565 4.536C128.565 4.56 128.557 4.58 128.541 4.596L128.325 4.812C128.285 4.852 128.249 4.852 128.217 4.812L127.557 4.152C127.541 4.136 127.533 4.116 127.533 4.092V1.908C127.533 1.884 127.541 1.864 127.557 1.848L128.217 1.188C128.249 1.156 128.285 1.156 128.325 1.188L128.541 1.416C128.557 1.432 128.565 1.452 128.565 1.476V4.536ZM127.449 1.74C127.433 1.756 127.413 1.764 127.389 1.764H125.205C125.181 1.764 125.161 1.756 125.145 1.74L124.485 1.092C124.445 1.052 124.445 1.012 124.485 0.972L124.701 0.756C124.717 0.74 124.737 0.732 124.761 0.732H127.833C127.857 0.732 127.877 0.74 127.893 0.756L128.109 0.972C128.149 1.012 128.149 1.052 128.109 1.092L127.449 1.74ZM125.061 4.092C125.061 4.116 125.053 4.136 125.037 4.152L124.377 4.812C124.337 4.852 124.297 4.852 124.257 4.812L124.053 4.596C124.037 4.58 124.029 4.56 124.029 4.536V1.476C124.029 1.452 124.037 1.432 124.053 1.416L124.257 1.188C124.297 1.148 124.337 1.148 124.377 1.188L125.037 1.848C125.053 1.864 125.061 1.884 125.061 1.908V4.092ZM128.001 4.812C128.041 4.852 128.041 4.892 128.001 4.932L127.569 5.364C127.553 5.38 127.533 5.388 127.509 5.388H125.085C125.061 5.388 125.041 5.38 125.025 5.364L124.593 4.932C124.553 4.892 124.553 4.852 124.593 4.812L125.025 4.368C125.041 4.352 125.061 4.344 125.085 4.344H127.509C127.533 4.344 127.553 4.352 127.569 4.368L128.001 4.812ZM125.061 7.824C125.061 7.848 125.053 7.868 125.037 7.884L124.377 8.544C124.337 8.584 124.297 8.584 124.257 8.544L124.053 8.316C124.037 8.3 124.029 8.28 124.029 8.256V5.196C124.029 5.172 124.037 5.152 124.053 5.136L124.257 4.92C124.297 4.88 124.337 4.88 124.377 4.92L125.037 5.58C125.053 5.596 125.061 5.616 125.061 5.64V7.824Z" fill="#FF003D"/>
</svg>
